<?xml version="1.0" encoding="utf-8" standalone="no"?>
<!DOCTYPE svg PUBLIC "-//W3C//DTD SVG 1.1//EN"
  "http://www.w3.org/Graphics/SVG/1.1/DTD/svg11.dtd">
<svg xmlns:xlink="http://www.w3.org/1999/xlink" width="603.78pt" height="363.718125pt" viewBox="0 0 603.78 363.718125" xmlns="http://www.w3.org/2000/svg" version="1.1">
 <metadata>
  <rdf:RDF xmlns:dc="http://purl.org/dc/elements/1.1/" xmlns:cc="http://creativecommons.org/ns#" xmlns:rdf="http://www.w3.org/1999/02/22-rdf-syntax-ns#">
   <cc:Work>
    <dc:type rdf:resource="http://purl.org/dc/dcmitype/StillImage"/>
    <dc:date>2026-01-08T19:33:17.316443</dc:date>
    <dc:format>image/svg+xml</dc:format>
    <dc:creator>
     <cc:Agent>
      <dc:title>Matplotlib v3.10.0, https://matplotlib.org/</dc:title>
     </cc:Agent>
    </dc:creator>
   </cc:Work>
  </rdf:RDF>
 </metadata>
 <defs>
  <style type="text/css">*{stroke-linejoin: round; stroke-linecap: butt}</style>
 </defs>
 <g id="figure_1">
  <g id="patch_1">
   <path d="M 0 363.718125 
L 603.78 363.718125 
L 603.78 0 
L 0 0 
z
" style="fill: #ffffff"/>
  </g>
  <g id="axes_1">
   <g id="patch_2">
    <path d="M 38.58 339.84 
L 596.58 339.84 
L 596.58 7.2 
L 38.58 7.2 
z
" style="fill: #ffffff"/>
   </g>
   <g id="table_1">
    <g id="patch_3">
     <path d="M 66.48 58.2048 
L 144.6 58.2048 
L 144.6 33.8112 
L 66.48 33.8112 
L 66.48 58.2048 
z
" style="fill: none"/>
    </g>
    <g id="text_1">
     <!-- Reject $H_0$ -->
     <g transform="translate(82.09 48.758) scale(0.1 -0.1)">
      <defs>
       <path id="DejaVuSans-52" d="M 2841 2188 
Q 3044 2119 3236 1894 
Q 3428 1669 3622 1275 
L 4263 0 
L 3584 0 
L 2988 1197 
Q 2756 1666 2539 1819 
Q 2322 1972 1947 1972 
L 1259 1972 
L 1259 0 
L 628 0 
L 628 4666 
L 2053 4666 
Q 2853 4666 3247 4331 
Q 3641 3997 3641 3322 
Q 3641 2881 3436 2590 
Q 3231 2300 2841 2188 
z
M 1259 4147 
L 1259 2491 
L 2053 2491 
Q 2509 2491 2742 2702 
Q 2975 2913 2975 3322 
Q 2975 3731 2742 3939 
Q 2509 4147 2053 4147 
L 1259 4147 
z
" transform="scale(0.015625)"/>
       <path id="DejaVuSans-65" d="M 3597 1894 
L 3597 1613 
L 953 1613 
Q 991 1019 1311 708 
Q 1631 397 2203 397 
Q 2534 397 2845 478 
Q 3156 559 3463 722 
L 3463 178 
Q 3153 47 2828 -22 
Q 2503 -91 2169 -91 
Q 1331 -91 842 396 
Q 353 884 353 1716 
Q 353 2575 817 3079 
Q 1281 3584 2069 3584 
Q 2775 3584 3186 3129 
Q 3597 2675 3597 1894 
z
M 3022 2063 
Q 3016 2534 2758 2815 
Q 2500 3097 2075 3097 
Q 1594 3097 1305 2825 
Q 1016 2553 972 2059 
L 3022 2063 
z
" transform="scale(0.015625)"/>
       <path id="DejaVuSans-6a" d="M 603 3500 
L 1178 3500 
L 1178 -63 
Q 1178 -731 923 -1031 
Q 669 -1331 103 -1331 
L -116 -1331 
L -116 -844 
L 38 -844 
Q 366 -844 484 -692 
Q 603 -541 603 -63 
L 603 3500 
z
M 603 4863 
L 1178 4863 
L 1178 4134 
L 603 4134 
L 603 4863 
z
" transform="scale(0.015625)"/>
       <path id="DejaVuSans-63" d="M 3122 3366 
L 3122 2828 
Q 2878 2963 2633 3030 
Q 2388 3097 2138 3097 
Q 1578 3097 1268 2742 
Q 959 2388 959 1747 
Q 959 1106 1268 751 
Q 1578 397 2138 397 
Q 2388 397 2633 464 
Q 2878 531 3122 666 
L 3122 134 
Q 2881 22 2623 -34 
Q 2366 -91 2075 -91 
Q 1284 -91 818 406 
Q 353 903 353 1747 
Q 353 2603 823 3093 
Q 1294 3584 2113 3584 
Q 2378 3584 2631 3529 
Q 2884 3475 3122 3366 
z
" transform="scale(0.015625)"/>
       <path id="DejaVuSans-74" d="M 1172 4494 
L 1172 3500 
L 2356 3500 
L 2356 3053 
L 1172 3053 
L 1172 1153 
Q 1172 725 1289 603 
Q 1406 481 1766 481 
L 2356 481 
L 2356 0 
L 1766 0 
Q 1100 0 847 248 
Q 594 497 594 1153 
L 594 3053 
L 172 3053 
L 172 3500 
L 594 3500 
L 594 4494 
L 1172 4494 
z
" transform="scale(0.015625)"/>
       <path id="DejaVuSans-20" transform="scale(0.015625)"/>
       <path id="DejaVuSans-Oblique-48" d="M 1081 4666 
L 1716 4666 
L 1344 2753 
L 3634 2753 
L 4006 4666 
L 4641 4666 
L 3731 0 
L 3097 0 
L 3531 2222 
L 1241 2222 
L 806 0 
L 172 0 
L 1081 4666 
z
" transform="scale(0.015625)"/>
       <path id="DejaVuSans-30" d="M 2034 4250 
Q 1547 4250 1301 3770 
Q 1056 3291 1056 2328 
Q 1056 1369 1301 889 
Q 1547 409 2034 409 
Q 2525 409 2770 889 
Q 3016 1369 3016 2328 
Q 3016 3291 2770 3770 
Q 2525 4250 2034 4250 
z
M 2034 4750 
Q 2819 4750 3233 4129 
Q 3647 3509 3647 2328 
Q 3647 1150 3233 529 
Q 2819 -91 2034 -91 
Q 1250 -91 836 529 
Q 422 1150 422 2328 
Q 422 3509 836 4129 
Q 1250 4750 2034 4750 
z
" transform="scale(0.015625)"/>
      </defs>
      <use xlink:href="#DejaVuSans-52" transform="translate(0 0.015625)"/>
      <use xlink:href="#DejaVuSans-65" transform="translate(69.482422 0.015625)"/>
      <use xlink:href="#DejaVuSans-6a" transform="translate(131.005859 0.015625)"/>
      <use xlink:href="#DejaVuSans-65" transform="translate(158.789062 0.015625)"/>
      <use xlink:href="#DejaVuSans-63" transform="translate(220.3125 0.015625)"/>
      <use xlink:href="#DejaVuSans-74" transform="translate(275.292969 0.015625)"/>
      <use xlink:href="#DejaVuSans-20" transform="translate(314.501953 0.015625)"/>
      <use xlink:href="#DejaVuSans-Oblique-48" transform="translate(346.289062 0.015625)"/>
      <use xlink:href="#DejaVuSans-30" transform="translate(421.484375 -16.390625) scale(0.7)"/>
     </g>
    </g>
    <g id="patch_4">
     <path d="M 144.6 58.2048 
L 222.72 58.2048 
L 222.72 33.8112 
L 144.6 33.8112 
L 144.6 58.2048 
z
" style="fill: none"/>
    </g>
    <g id="text_2">
     <!-- Fail to reject $H_0$ -->
     <g transform="translate(144.71 48.758) scale(0.1 -0.1)">
      <defs>
       <path id="DejaVuSans-46" d="M 628 4666 
L 3309 4666 
L 3309 4134 
L 1259 4134 
L 1259 2759 
L 3109 2759 
L 3109 2228 
L 1259 2228 
L 1259 0 
L 628 0 
L 628 4666 
z
" transform="scale(0.015625)"/>
       <path id="DejaVuSans-61" d="M 2194 1759 
Q 1497 1759 1228 1600 
Q 959 1441 959 1056 
Q 959 750 1161 570 
Q 1363 391 1709 391 
Q 2188 391 2477 730 
Q 2766 1069 2766 1631 
L 2766 1759 
L 2194 1759 
z
M 3341 1997 
L 3341 0 
L 2766 0 
L 2766 531 
Q 2569 213 2275 61 
Q 1981 -91 1556 -91 
Q 1019 -91 701 211 
Q 384 513 384 1019 
Q 384 1609 779 1909 
Q 1175 2209 1959 2209 
L 2766 2209 
L 2766 2266 
Q 2766 2663 2505 2880 
Q 2244 3097 1772 3097 
Q 1472 3097 1187 3025 
Q 903 2953 641 2809 
L 641 3341 
Q 956 3463 1253 3523 
Q 1550 3584 1831 3584 
Q 2591 3584 2966 3190 
Q 3341 2797 3341 1997 
z
" transform="scale(0.015625)"/>
       <path id="DejaVuSans-69" d="M 603 3500 
L 1178 3500 
L 1178 0 
L 603 0 
L 603 3500 
z
M 603 4863 
L 1178 4863 
L 1178 4134 
L 603 4134 
L 603 4863 
z
" transform="scale(0.015625)"/>
       <path id="DejaVuSans-6c" d="M 603 4863 
L 1178 4863 
L 1178 0 
L 603 0 
L 603 4863 
z
" transform="scale(0.015625)"/>
       <path id="DejaVuSans-6f" d="M 1959 3097 
Q 1497 3097 1228 2736 
Q 959 2375 959 1747 
Q 959 1119 1226 758 
Q 1494 397 1959 397 
Q 2419 397 2687 759 
Q 2956 1122 2956 1747 
Q 2956 2369 2687 2733 
Q 2419 3097 1959 3097 
z
M 1959 3584 
Q 2709 3584 3137 3096 
Q 3566 2609 3566 1747 
Q 3566 888 3137 398 
Q 2709 -91 1959 -91 
Q 1206 -91 779 398 
Q 353 888 353 1747 
Q 353 2609 779 3096 
Q 1206 3584 1959 3584 
z
" transform="scale(0.015625)"/>
       <path id="DejaVuSans-72" d="M 2631 2963 
Q 2534 3019 2420 3045 
Q 2306 3072 2169 3072 
Q 1681 3072 1420 2755 
Q 1159 2438 1159 1844 
L 1159 0 
L 581 0 
L 581 3500 
L 1159 3500 
L 1159 2956 
Q 1341 3275 1631 3429 
Q 1922 3584 2338 3584 
Q 2397 3584 2469 3576 
Q 2541 3569 2628 3553 
L 2631 2963 
z
" transform="scale(0.015625)"/>
      </defs>
      <use xlink:href="#DejaVuSans-46" transform="translate(0 0.015625)"/>
      <use xlink:href="#DejaVuSans-61" transform="translate(57.519531 0.015625)"/>
      <use xlink:href="#DejaVuSans-69" transform="translate(118.798828 0.015625)"/>
      <use xlink:href="#DejaVuSans-6c" transform="translate(146.582031 0.015625)"/>
      <use xlink:href="#DejaVuSans-20" transform="translate(174.365234 0.015625)"/>
      <use xlink:href="#DejaVuSans-74" transform="translate(206.152344 0.015625)"/>
      <use xlink:href="#DejaVuSans-6f" transform="translate(245.361328 0.015625)"/>
      <use xlink:href="#DejaVuSans-20" transform="translate(306.542969 0.015625)"/>
      <use xlink:href="#DejaVuSans-72" transform="translate(338.330078 0.015625)"/>
      <use xlink:href="#DejaVuSans-65" transform="translate(379.443359 0.015625)"/>
      <use xlink:href="#DejaVuSans-6a" transform="translate(440.966797 0.015625)"/>
      <use xlink:href="#DejaVuSans-65" transform="translate(468.75 0.015625)"/>
      <use xlink:href="#DejaVuSans-63" transform="translate(530.273438 0.015625)"/>
      <use xlink:href="#DejaVuSans-74" transform="translate(585.253906 0.015625)"/>
      <use xlink:href="#DejaVuSans-20" transform="translate(624.462891 0.015625)"/>
      <use xlink:href="#DejaVuSans-Oblique-48" transform="translate(656.25 0.015625)"/>
      <use xlink:href="#DejaVuSans-30" transform="translate(731.445312 -16.390625) scale(0.7)"/>
     </g>
    </g>
    <g id="patch_5">
     <path d="M 7.2 82.5984 
L 66.48 82.5984 
L 66.48 58.2048 
L 7.2 58.2048 
L 7.2 82.5984 
z
" style="fill: none"/>
    </g>
    <g id="text_3">
     <!-- $H_1$ is True -->
     <g transform="translate(13.128 73.160975) scale(0.1 -0.1)">
      <defs>
       <path id="DejaVuSans-31" d="M 794 531 
L 1825 531 
L 1825 4091 
L 703 3866 
L 703 4441 
L 1819 4666 
L 2450 4666 
L 2450 531 
L 3481 531 
L 3481 0 
L 794 0 
L 794 531 
z
" transform="scale(0.015625)"/>
       <path id="DejaVuSans-73" d="M 2834 3397 
L 2834 2853 
Q 2591 2978 2328 3040 
Q 2066 3103 1784 3103 
Q 1356 3103 1142 2972 
Q 928 2841 928 2578 
Q 928 2378 1081 2264 
Q 1234 2150 1697 2047 
L 1894 2003 
Q 2506 1872 2764 1633 
Q 3022 1394 3022 966 
Q 3022 478 2636 193 
Q 2250 -91 1575 -91 
Q 1294 -91 989 -36 
Q 684 19 347 128 
L 347 722 
Q 666 556 975 473 
Q 1284 391 1588 391 
Q 1994 391 2212 530 
Q 2431 669 2431 922 
Q 2431 1156 2273 1281 
Q 2116 1406 1581 1522 
L 1381 1569 
Q 847 1681 609 1914 
Q 372 2147 372 2553 
Q 372 3047 722 3315 
Q 1072 3584 1716 3584 
Q 2034 3584 2315 3537 
Q 2597 3491 2834 3397 
z
" transform="scale(0.015625)"/>
       <path id="DejaVuSans-54" d="M -19 4666 
L 3928 4666 
L 3928 4134 
L 2272 4134 
L 2272 0 
L 1638 0 
L 1638 4134 
L -19 4134 
L -19 4666 
z
" transform="scale(0.015625)"/>
       <path id="DejaVuSans-75" d="M 544 1381 
L 544 3500 
L 1119 3500 
L 1119 1403 
Q 1119 906 1312 657 
Q 1506 409 1894 409 
Q 2359 409 2629 706 
Q 2900 1003 2900 1516 
L 2900 3500 
L 3475 3500 
L 3475 0 
L 2900 0 
L 2900 538 
Q 2691 219 2414 64 
Q 2138 -91 1772 -91 
Q 1169 -91 856 284 
Q 544 659 544 1381 
z
M 1991 3584 
L 1991 3584 
z
" transform="scale(0.015625)"/>
      </defs>
      <use xlink:href="#DejaVuSans-Oblique-48" transform="translate(0 0.015625)"/>
      <use xlink:href="#DejaVuSans-31" transform="translate(75.195312 -16.390625) scale(0.7)"/>
      <use xlink:href="#DejaVuSans-20" transform="translate(122.46582 0.015625)"/>
      <use xlink:href="#DejaVuSans-69" transform="translate(154.25293 0.015625)"/>
      <use xlink:href="#DejaVuSans-73" transform="translate(182.036133 0.015625)"/>
      <use xlink:href="#DejaVuSans-20" transform="translate(234.135742 0.015625)"/>
      <use xlink:href="#DejaVuSans-54" transform="translate(265.922852 0.015625)"/>
      <use xlink:href="#DejaVuSans-72" transform="translate(327.006836 0.015625)"/>
      <use xlink:href="#DejaVuSans-75" transform="translate(368.120117 0.015625)"/>
      <use xlink:href="#DejaVuSans-65" transform="translate(431.499023 0.015625)"/>
     </g>
    </g>
    <g id="patch_6">
     <path d="M 66.48 82.5984 
L 144.6 82.5984 
L 144.6 58.2048 
L 66.48 58.2048 
z
" style="fill: #e6ffed; stroke: #808080; stroke-linejoin: miter"/>
    </g>
    <g id="text_4">
     <!-- Correct -->
     <g transform="translate(87.292344 67.490975) scale(0.1 -0.1)">
      <defs>
       <path id="DejaVuSans-43" d="M 4122 4306 
L 4122 3641 
Q 3803 3938 3442 4084 
Q 3081 4231 2675 4231 
Q 1875 4231 1450 3742 
Q 1025 3253 1025 2328 
Q 1025 1406 1450 917 
Q 1875 428 2675 428 
Q 3081 428 3442 575 
Q 3803 722 4122 1019 
L 4122 359 
Q 3791 134 3420 21 
Q 3050 -91 2638 -91 
Q 1578 -91 968 557 
Q 359 1206 359 2328 
Q 359 3453 968 4101 
Q 1578 4750 2638 4750 
Q 3056 4750 3426 4639 
Q 3797 4528 4122 4306 
z
" transform="scale(0.015625)"/>
      </defs>
      <use xlink:href="#DejaVuSans-43"/>
      <use xlink:href="#DejaVuSans-6f" transform="translate(69.824219 0)"/>
      <use xlink:href="#DejaVuSans-72" transform="translate(131.005859 0)"/>
      <use xlink:href="#DejaVuSans-72" transform="translate(170.369141 0)"/>
      <use xlink:href="#DejaVuSans-65" transform="translate(209.232422 0)"/>
      <use xlink:href="#DejaVuSans-63" transform="translate(270.755859 0)"/>
      <use xlink:href="#DejaVuSans-74" transform="translate(325.736328 0)"/>
     </g>
     <!-- Power, $1-\beta$ -->
     <g transform="translate(74.54 78.810662) scale(0.1 -0.1)">
      <defs>
       <path id="DejaVuSans-50" d="M 1259 4147 
L 1259 2394 
L 2053 2394 
Q 2494 2394 2734 2622 
Q 2975 2850 2975 3272 
Q 2975 3691 2734 3919 
Q 2494 4147 2053 4147 
L 1259 4147 
z
M 628 4666 
L 2053 4666 
Q 2838 4666 3239 4311 
Q 3641 3956 3641 3272 
Q 3641 2581 3239 2228 
Q 2838 1875 2053 1875 
L 1259 1875 
L 1259 0 
L 628 0 
L 628 4666 
z
" transform="scale(0.015625)"/>
       <path id="DejaVuSans-77" d="M 269 3500 
L 844 3500 
L 1563 769 
L 2278 3500 
L 2956 3500 
L 3675 769 
L 4391 3500 
L 4966 3500 
L 4050 0 
L 3372 0 
L 2619 2869 
L 1863 0 
L 1184 0 
L 269 3500 
z
" transform="scale(0.015625)"/>
       <path id="DejaVuSans-2c" d="M 750 794 
L 1409 794 
L 1409 256 
L 897 -744 
L 494 -744 
L 750 256 
L 750 794 
z
" transform="scale(0.015625)"/>
       <path id="DejaVuSans-2212" d="M 678 2272 
L 4684 2272 
L 4684 1741 
L 678 1741 
L 678 2272 
z
" transform="scale(0.015625)"/>
       <path id="DejaVuSans-Oblique-3b2" d="M 872 216 
L 572 -1331 
L -6 -1331 
L 928 3478 
Q 1206 4903 2538 4903 
Q 3888 4903 3659 3700 
Q 3503 2844 2894 2531 
Q 3713 2250 3553 1416 
Q 3272 -69 1759 -66 
Q 1097 -63 872 216 
z
M 1019 966 
Q 1259 422 1875 425 
Q 2775 425 2966 1406 
Q 3138 2288 1675 2219 
L 1778 2750 
Q 2909 2731 3106 3750 
Q 3241 4438 2509 4434 
Q 1691 4434 1503 3459 
L 1019 966 
z
" transform="scale(0.015625)"/>
      </defs>
      <use xlink:href="#DejaVuSans-50" transform="translate(0 0.390625)"/>
      <use xlink:href="#DejaVuSans-6f" transform="translate(60.302734 0.390625)"/>
      <use xlink:href="#DejaVuSans-77" transform="translate(121.484375 0.390625)"/>
      <use xlink:href="#DejaVuSans-65" transform="translate(203.271484 0.390625)"/>
      <use xlink:href="#DejaVuSans-72" transform="translate(264.794922 0.390625)"/>
      <use xlink:href="#DejaVuSans-2c" transform="translate(305.908203 0.390625)"/>
      <use xlink:href="#DejaVuSans-20" transform="translate(337.695312 0.390625)"/>
      <use xlink:href="#DejaVuSans-31" transform="translate(369.482422 0.390625)"/>
      <use xlink:href="#DejaVuSans-2212" transform="translate(452.587891 0.390625)"/>
      <use xlink:href="#DejaVuSans-Oblique-3b2" transform="translate(555.859375 0.390625)"/>
     </g>
    </g>
    <g id="patch_7">
     <path d="M 144.6 82.5984 
L 222.72 82.5984 
L 222.72 58.2048 
L 144.6 58.2048 
z
" style="fill: #0000ff; fill-opacity: 0.2; stroke: #808080; stroke-linejoin: miter"/>
    </g>
    <g id="text_5">
     <!-- False Negative -->
     <g transform="translate(147.076406 67.490975) scale(0.1 -0.1)">
      <defs>
       <path id="DejaVuSans-4e" d="M 628 4666 
L 1478 4666 
L 3547 763 
L 3547 4666 
L 4159 4666 
L 4159 0 
L 3309 0 
L 1241 3903 
L 1241 0 
L 628 0 
L 628 4666 
z
" transform="scale(0.015625)"/>
       <path id="DejaVuSans-67" d="M 2906 1791 
Q 2906 2416 2648 2759 
Q 2391 3103 1925 3103 
Q 1463 3103 1205 2759 
Q 947 2416 947 1791 
Q 947 1169 1205 825 
Q 1463 481 1925 481 
Q 2391 481 2648 825 
Q 2906 1169 2906 1791 
z
M 3481 434 
Q 3481 -459 3084 -895 
Q 2688 -1331 1869 -1331 
Q 1566 -1331 1297 -1286 
Q 1028 -1241 775 -1147 
L 775 -588 
Q 1028 -725 1275 -790 
Q 1522 -856 1778 -856 
Q 2344 -856 2625 -561 
Q 2906 -266 2906 331 
L 2906 616 
Q 2728 306 2450 153 
Q 2172 0 1784 0 
Q 1141 0 747 490 
Q 353 981 353 1791 
Q 353 2603 747 3093 
Q 1141 3584 1784 3584 
Q 2172 3584 2450 3431 
Q 2728 3278 2906 2969 
L 2906 3500 
L 3481 3500 
L 3481 434 
z
" transform="scale(0.015625)"/>
       <path id="DejaVuSans-76" d="M 191 3500 
L 800 3500 
L 1894 563 
L 2988 3500 
L 3597 3500 
L 2284 0 
L 1503 0 
L 191 3500 
z
" transform="scale(0.015625)"/>
      </defs>
      <use xlink:href="#DejaVuSans-46"/>
      <use xlink:href="#DejaVuSans-61" transform="translate(48.394531 0)"/>
      <use xlink:href="#DejaVuSans-6c" transform="translate(109.673828 0)"/>
      <use xlink:href="#DejaVuSans-73" transform="translate(137.457031 0)"/>
      <use xlink:href="#DejaVuSans-65" transform="translate(189.556641 0)"/>
      <use xlink:href="#DejaVuSans-20" transform="translate(251.080078 0)"/>
      <use xlink:href="#DejaVuSans-4e" transform="translate(282.867188 0)"/>
      <use xlink:href="#DejaVuSans-65" transform="translate(357.671875 0)"/>
      <use xlink:href="#DejaVuSans-67" transform="translate(419.195312 0)"/>
      <use xlink:href="#DejaVuSans-61" transform="translate(482.671875 0)"/>
      <use xlink:href="#DejaVuSans-74" transform="translate(543.951172 0)"/>
      <use xlink:href="#DejaVuSans-69" transform="translate(583.160156 0)"/>
      <use xlink:href="#DejaVuSans-76" transform="translate(610.943359 0)"/>
      <use xlink:href="#DejaVuSans-65" transform="translate(670.123047 0)"/>
     </g>
     <!-- $\beta$ -->
     <g transform="translate(180.46 78.810662) scale(0.1 -0.1)">
      <use xlink:href="#DejaVuSans-Oblique-3b2" transform="translate(0 0.390625)"/>
     </g>
    </g>
    <g id="patch_8">
     <path d="M 7.2 106.992 
L 66.48 106.992 
L 66.48 82.5984 
L 7.2 82.5984 
L 7.2 106.992 
z
" style="fill: none"/>
    </g>
    <g id="text_6">
     <!-- $H_0$ is True -->
     <g transform="translate(13.128 97.554575) scale(0.1 -0.1)">
      <use xlink:href="#DejaVuSans-Oblique-48" transform="translate(0 0.015625)"/>
      <use xlink:href="#DejaVuSans-30" transform="translate(75.195312 -16.390625) scale(0.7)"/>
      <use xlink:href="#DejaVuSans-20" transform="translate(122.46582 0.015625)"/>
      <use xlink:href="#DejaVuSans-69" transform="translate(154.25293 0.015625)"/>
      <use xlink:href="#DejaVuSans-73" transform="translate(182.036133 0.015625)"/>
      <use xlink:href="#DejaVuSans-20" transform="translate(234.135742 0.015625)"/>
      <use xlink:href="#DejaVuSans-54" transform="translate(265.922852 0.015625)"/>
      <use xlink:href="#DejaVuSans-72" transform="translate(327.006836 0.015625)"/>
      <use xlink:href="#DejaVuSans-75" transform="translate(368.120117 0.015625)"/>
      <use xlink:href="#DejaVuSans-65" transform="translate(431.499023 0.015625)"/>
     </g>
    </g>
    <g id="patch_9">
     <path d="M 66.48 106.992 
L 144.6 106.992 
L 144.6 82.5984 
L 66.48 82.5984 
z
" style="fill: #ff0000; fill-opacity: 0.3; stroke: #808080; stroke-linejoin: miter"/>
    </g>
    <g id="text_7">
     <!-- False Positive -->
     <g transform="translate(72.125156 91.955669) scale(0.1 -0.1)">
      <use xlink:href="#DejaVuSans-46"/>
      <use xlink:href="#DejaVuSans-61" transform="translate(48.394531 0)"/>
      <use xlink:href="#DejaVuSans-6c" transform="translate(109.673828 0)"/>
      <use xlink:href="#DejaVuSans-73" transform="translate(137.457031 0)"/>
      <use xlink:href="#DejaVuSans-65" transform="translate(189.556641 0)"/>
      <use xlink:href="#DejaVuSans-20" transform="translate(251.080078 0)"/>
      <use xlink:href="#DejaVuSans-50" transform="translate(282.867188 0)"/>
      <use xlink:href="#DejaVuSans-6f" transform="translate(339.544922 0)"/>
      <use xlink:href="#DejaVuSans-73" transform="translate(400.726562 0)"/>
      <use xlink:href="#DejaVuSans-69" transform="translate(452.826172 0)"/>
      <use xlink:href="#DejaVuSans-74" transform="translate(480.609375 0)"/>
      <use xlink:href="#DejaVuSans-69" transform="translate(519.818359 0)"/>
      <use xlink:href="#DejaVuSans-76" transform="translate(547.601562 0)"/>
      <use xlink:href="#DejaVuSans-65" transform="translate(606.78125 0)"/>
     </g>
     <!-- $\alpha$ -->
     <g transform="translate(102.24 103.153481) scale(0.1 -0.1)">
      <defs>
       <path id="DejaVuSans-Oblique-3b1" d="M 2619 1628 
L 2622 2350 
Q 2625 3088 2069 3091 
Q 1653 3094 1394 2747 
Q 1069 2319 959 1747 
Q 825 1059 994 731 
Q 1169 397 1547 397 
Q 1966 397 2319 1063 
L 2619 1628 
z
M 2166 3578 
Q 3141 3594 3128 2584 
Q 3128 2584 3616 3500 
L 4128 3500 
L 3119 1603 
L 3109 919 
Q 3109 766 3194 638 
Q 3291 488 3391 488 
L 3669 488 
L 3575 0 
L 3228 0 
Q 2934 0 2722 263 
Q 2622 394 2619 669 
Q 2416 334 2066 50 
Q 1900 -81 1453 -78 
Q 722 -72 456 397 
Q 184 884 353 1747 
Q 534 2675 1009 3097 
Q 1544 3569 2166 3578 
z
" transform="scale(0.015625)"/>
      </defs>
      <use xlink:href="#DejaVuSans-Oblique-3b1" transform="translate(0 0.84375)"/>
     </g>
    </g>
    <g id="patch_10">
     <path d="M 144.6 106.992 
L 222.72 106.992 
L 222.72 82.5984 
L 144.6 82.5984 
z
" style="fill: #ffffff; stroke: #808080; stroke-linejoin: miter"/>
    </g>
    <g id="text_8">
     <!-- Correct -->
     <g transform="translate(165.412344 91.955669) scale(0.1 -0.1)">
      <use xlink:href="#DejaVuSans-43"/>
      <use xlink:href="#DejaVuSans-6f" transform="translate(69.824219 0)"/>
      <use xlink:href="#DejaVuSans-72" transform="translate(131.005859 0)"/>
      <use xlink:href="#DejaVuSans-72" transform="translate(170.369141 0)"/>
      <use xlink:href="#DejaVuSans-65" transform="translate(209.232422 0)"/>
      <use xlink:href="#DejaVuSans-63" transform="translate(270.755859 0)"/>
      <use xlink:href="#DejaVuSans-74" transform="translate(325.736328 0)"/>
     </g>
     <!-- $1-\alpha$ -->
     <g transform="translate(171.01 103.153481) scale(0.1 -0.1)">
      <use xlink:href="#DejaVuSans-31" transform="translate(0 0.09375)"/>
      <use xlink:href="#DejaVuSans-2212" transform="translate(83.105469 0.09375)"/>
      <use xlink:href="#DejaVuSans-Oblique-3b1" transform="translate(186.376953 0.09375)"/>
     </g>
    </g>
   </g>
   <g id="FillBetweenPolyCollection_1">
    <path d="M 355.805663 324.72 
L 355.805663 280.418374 
L 357.981528 284.515743 
L 360.157394 288.321314 
L 362.33326 291.845387 
L 364.509125 295.099193 
L 366.684991 298.094707 
L 368.860857 300.84446 
L 371.036722 303.361375 
L 373.212588 305.658606 
L 375.388454 307.749395 
L 377.564319 309.646946 
L 379.740185 311.364305 
L 381.916051 312.914266 
L 384.091916 314.309279 
L 386.267782 315.561383 
L 388.443648 316.682143 
L 390.619513 317.682605 
L 392.795379 318.57326 
L 394.971245 319.364018 
L 397.14711 320.064197 
L 399.322976 320.68251 
L 401.498842 321.227073 
L 403.674707 321.705406 
L 405.850573 322.124449 
L 408.026439 322.490582 
L 410.202304 322.809642 
L 412.37817 323.086951 
L 414.554036 323.32734 
L 416.729901 323.535181 
L 418.905767 323.714411 
L 421.081633 323.868568 
L 423.257498 324.000814 
L 425.433364 324.113971 
L 427.60923 324.210544 
L 429.785095 324.29275 
L 431.960961 324.362548 
L 434.136827 324.421658 
L 436.312692 324.471587 
L 438.488558 324.513655 
L 440.664424 324.549008 
L 442.840289 324.578643 
L 445.016155 324.603421 
L 447.192021 324.624085 
L 449.367886 324.641275 
L 451.543752 324.655539 
L 453.719618 324.667344 
L 455.895483 324.67709 
L 458.071349 324.685116 
L 460.247215 324.691708 
L 462.42308 324.697109 
L 464.598946 324.701524 
L 466.774812 324.705123 
L 468.950677 324.708049 
L 471.126543 324.710423 
L 473.302409 324.712343 
L 475.478274 324.713893 
L 477.65414 324.715141 
L 479.830006 324.716143 
L 482.005871 324.716946 
L 484.181737 324.717587 
L 486.357603 324.718099 
L 488.533468 324.718505 
L 490.709334 324.718828 
L 492.8852 324.719083 
L 495.061065 324.719284 
L 497.236931 324.719442 
L 499.412797 324.719567 
L 501.588662 324.719664 
L 503.764528 324.71974 
L 505.940394 324.7198 
L 508.116259 324.719846 
L 510.292125 324.719882 
L 512.467991 324.719909 
L 514.643856 324.719931 
L 516.819722 324.719947 
L 518.995588 324.71996 
L 521.171453 324.71997 
L 523.347319 324.719977 
L 525.523185 324.719983 
L 527.69905 324.719987 
L 529.874916 324.71999 
L 532.050782 324.719993 
L 534.226647 324.719994 
L 536.402513 324.719996 
L 538.578379 324.719997 
L 540.754244 324.719998 
L 542.93011 324.719998 
L 545.105976 324.719999 
L 547.281841 324.719999 
L 549.457707 324.719999 
L 551.633573 324.72 
L 553.809438 324.72 
L 555.985304 324.72 
L 558.16117 324.72 
L 560.337035 324.72 
L 562.512901 324.72 
L 564.688767 324.72 
L 566.864632 324.72 
L 569.040498 324.72 
L 571.216364 324.72 
L 571.216364 324.72 
L 571.216364 324.72 
L 569.040498 324.72 
L 566.864632 324.72 
L 564.688767 324.72 
L 562.512901 324.72 
L 560.337035 324.72 
L 558.16117 324.72 
L 555.985304 324.72 
L 553.809438 324.72 
L 551.633573 324.72 
L 549.457707 324.72 
L 547.281841 324.72 
L 545.105976 324.72 
L 542.93011 324.72 
L 540.754244 324.72 
L 538.578379 324.72 
L 536.402513 324.72 
L 534.226647 324.72 
L 532.050782 324.72 
L 529.874916 324.72 
L 527.69905 324.72 
L 525.523185 324.72 
L 523.347319 324.72 
L 521.171453 324.72 
L 518.995588 324.72 
L 516.819722 324.72 
L 514.643856 324.72 
L 512.467991 324.72 
L 510.292125 324.72 
L 508.116259 324.72 
L 505.940394 324.72 
L 503.764528 324.72 
L 501.588662 324.72 
L 499.412797 324.72 
L 497.236931 324.72 
L 495.061065 324.72 
L 492.8852 324.72 
L 490.709334 324.72 
L 488.533468 324.72 
L 486.357603 324.72 
L 484.181737 324.72 
L 482.005871 324.72 
L 479.830006 324.72 
L 477.65414 324.72 
L 475.478274 324.72 
L 473.302409 324.72 
L 471.126543 324.72 
L 468.950677 324.72 
L 466.774812 324.72 
L 464.598946 324.72 
L 462.42308 324.72 
L 460.247215 324.72 
L 458.071349 324.72 
L 455.895483 324.72 
L 453.719618 324.72 
L 451.543752 324.72 
L 449.367886 324.72 
L 447.192021 324.72 
L 445.016155 324.72 
L 442.840289 324.72 
L 440.664424 324.72 
L 438.488558 324.72 
L 436.312692 324.72 
L 434.136827 324.72 
L 431.960961 324.72 
L 429.785095 324.72 
L 427.60923 324.72 
L 425.433364 324.72 
L 423.257498 324.72 
L 421.081633 324.72 
L 418.905767 324.72 
L 416.729901 324.72 
L 414.554036 324.72 
L 412.37817 324.72 
L 410.202304 324.72 
L 408.026439 324.72 
L 405.850573 324.72 
L 403.674707 324.72 
L 401.498842 324.72 
L 399.322976 324.72 
L 397.14711 324.72 
L 394.971245 324.72 
L 392.795379 324.72 
L 390.619513 324.72 
L 388.443648 324.72 
L 386.267782 324.72 
L 384.091916 324.72 
L 381.916051 324.72 
L 379.740185 324.72 
L 377.564319 324.72 
L 375.388454 324.72 
L 373.212588 324.72 
L 371.036722 324.72 
L 368.860857 324.72 
L 366.684991 324.72 
L 364.509125 324.72 
L 362.33326 324.72 
L 360.157394 324.72 
L 357.981528 324.72 
L 355.805663 324.72 
z
" clip-path="url(#p5dc789ff37)" style="fill: url(#hd74afbf311); fill-opacity: 0.3; stroke: #ff0000; stroke-opacity: 0.3"/>
   </g>
   <g id="FillBetweenPolyCollection_2">
    <path d="M 63.943636 324.72 
L 63.943636 324.712313 
L 65.13009 324.711313 
L 66.316544 324.71019 
L 67.502997 324.708929 
L 68.689451 324.707515 
L 69.875905 324.705931 
L 71.062359 324.704157 
L 72.248812 324.702172 
L 73.435266 324.699953 
L 74.62172 324.697473 
L 75.808173 324.694704 
L 76.994627 324.691616 
L 78.181081 324.688173 
L 79.367534 324.684337 
L 80.553988 324.680068 
L 81.740442 324.67532 
L 82.926896 324.670042 
L 84.113349 324.664181 
L 85.299803 324.657677 
L 86.486257 324.650464 
L 87.67271 324.642471 
L 88.859164 324.633622 
L 90.045618 324.62383 
L 91.232071 324.613005 
L 92.418525 324.601046 
L 93.604979 324.587844 
L 94.791433 324.573281 
L 95.977886 324.557229 
L 97.16434 324.53955 
L 98.350794 324.520092 
L 99.537247 324.498694 
L 100.723701 324.475179 
L 101.910155 324.449359 
L 103.096608 324.421028 
L 104.283062 324.389966 
L 105.469516 324.355936 
L 106.65597 324.318682 
L 107.842423 324.277931 
L 109.028877 324.233388 
L 110.215331 324.184738 
L 111.401784 324.131642 
L 112.588238 324.073739 
L 113.774692 324.010643 
L 114.961146 323.941939 
L 116.147599 323.867188 
L 117.334053 323.78592 
L 118.520507 323.697635 
L 119.70696 323.601801 
L 120.893414 323.497853 
L 122.079868 323.385192 
L 123.266321 323.263182 
L 124.452775 323.131149 
L 125.639229 322.988382 
L 126.825683 322.834129 
L 128.012136 322.667594 
L 129.19859 322.487941 
L 130.385044 322.294288 
L 131.571497 322.085707 
L 132.757951 321.861226 
L 133.944405 321.61982 
L 135.130858 321.360419 
L 136.317312 321.081901 
L 137.503766 320.783094 
L 138.69022 320.462774 
L 139.876673 320.119664 
L 141.063127 319.752435 
L 142.249581 319.359705 
L 143.436034 318.940038 
L 144.622488 318.491944 
L 145.808942 318.013883 
L 146.995395 317.504259 
L 148.181849 316.961427 
L 149.368303 316.383687 
L 150.554757 315.769294 
L 151.74121 315.116452 
L 152.927664 314.423318 
L 154.114118 313.688005 
L 155.300571 312.908583 
L 156.487025 312.083085 
L 157.673479 311.209503 
L 158.859932 310.2858 
L 160.046386 309.309907 
L 161.23284 308.279729 
L 162.419294 307.19315 
L 163.605747 306.04804 
L 164.792201 304.842256 
L 165.978655 303.573648 
L 167.165108 302.240069 
L 168.351562 300.839377 
L 169.538016 299.369444 
L 170.724469 297.828162 
L 171.910923 296.213451 
L 173.097377 294.523266 
L 174.283831 292.755608 
L 175.470284 290.908528 
L 176.656738 288.980137 
L 177.843192 286.968619 
L 179.029645 284.872236 
L 180.216099 282.689338 
L 181.402553 280.418374 
L 181.402553 324.72 
L 181.402553 324.72 
L 180.216099 324.72 
L 179.029645 324.72 
L 177.843192 324.72 
L 176.656738 324.72 
L 175.470284 324.72 
L 174.283831 324.72 
L 173.097377 324.72 
L 171.910923 324.72 
L 170.724469 324.72 
L 169.538016 324.72 
L 168.351562 324.72 
L 167.165108 324.72 
L 165.978655 324.72 
L 164.792201 324.72 
L 163.605747 324.72 
L 162.419294 324.72 
L 161.23284 324.72 
L 160.046386 324.72 
L 158.859932 324.72 
L 157.673479 324.72 
L 156.487025 324.72 
L 155.300571 324.72 
L 154.114118 324.72 
L 152.927664 324.72 
L 151.74121 324.72 
L 150.554757 324.72 
L 149.368303 324.72 
L 148.181849 324.72 
L 146.995395 324.72 
L 145.808942 324.72 
L 144.622488 324.72 
L 143.436034 324.72 
L 142.249581 324.72 
L 141.063127 324.72 
L 139.876673 324.72 
L 138.69022 324.72 
L 137.503766 324.72 
L 136.317312 324.72 
L 135.130858 324.72 
L 133.944405 324.72 
L 132.757951 324.72 
L 131.571497 324.72 
L 130.385044 324.72 
L 129.19859 324.72 
L 128.012136 324.72 
L 126.825683 324.72 
L 125.639229 324.72 
L 124.452775 324.72 
L 123.266321 324.72 
L 122.079868 324.72 
L 120.893414 324.72 
L 119.70696 324.72 
L 118.520507 324.72 
L 117.334053 324.72 
L 116.147599 324.72 
L 114.961146 324.72 
L 113.774692 324.72 
L 112.588238 324.72 
L 111.401784 324.72 
L 110.215331 324.72 
L 109.028877 324.72 
L 107.842423 324.72 
L 106.65597 324.72 
L 105.469516 324.72 
L 104.283062 324.72 
L 103.096608 324.72 
L 101.910155 324.72 
L 100.723701 324.72 
L 99.537247 324.72 
L 98.350794 324.72 
L 97.16434 324.72 
L 95.977886 324.72 
L 94.791433 324.72 
L 93.604979 324.72 
L 92.418525 324.72 
L 91.232071 324.72 
L 90.045618 324.72 
L 88.859164 324.72 
L 87.67271 324.72 
L 86.486257 324.72 
L 85.299803 324.72 
L 84.113349 324.72 
L 82.926896 324.72 
L 81.740442 324.72 
L 80.553988 324.72 
L 79.367534 324.72 
L 78.181081 324.72 
L 76.994627 324.72 
L 75.808173 324.72 
L 74.62172 324.72 
L 73.435266 324.72 
L 72.248812 324.72 
L 71.062359 324.72 
L 69.875905 324.72 
L 68.689451 324.72 
L 67.502997 324.72 
L 66.316544 324.72 
L 65.13009 324.72 
L 63.943636 324.72 
z
" clip-path="url(#p5dc789ff37)" style="fill: url(#hd74afbf311); fill-opacity: 0.3; stroke: #ff0000; stroke-opacity: 0.3"/>
   </g>
   <g id="FillBetweenPolyCollection_3">
    <path d="M 63.943636 324.72 
L 63.943636 324.72 
L 66.891738 324.72 
L 69.839839 324.72 
L 72.78794 324.72 
L 75.736041 324.72 
L 78.684143 324.72 
L 81.632244 324.72 
L 84.580345 324.72 
L 87.528447 324.72 
L 90.476548 324.72 
L 93.424649 324.72 
L 96.37275 324.72 
L 99.320852 324.72 
L 102.268953 324.72 
L 105.217054 324.72 
L 108.165156 324.72 
L 111.113257 324.719999 
L 114.061358 324.719999 
L 117.009459 324.719999 
L 119.957561 324.719998 
L 122.905662 324.719997 
L 125.853763 324.719996 
L 128.801864 324.719994 
L 131.749966 324.71999 
L 134.698067 324.719986 
L 137.646168 324.719979 
L 140.59427 324.71997 
L 143.542371 324.719956 
L 146.490472 324.719937 
L 149.438573 324.719909 
L 152.386675 324.719869 
L 155.334776 324.719813 
L 158.282877 324.719734 
L 161.230978 324.719624 
L 164.17908 324.71947 
L 167.127181 324.719256 
L 170.075282 324.718961 
L 173.023384 324.718554 
L 175.971485 324.717997 
L 178.919586 324.717238 
L 181.867687 324.716207 
L 184.815789 324.714816 
L 187.76389 324.712944 
L 190.711991 324.710439 
L 193.660093 324.707101 
L 196.608194 324.702673 
L 199.556295 324.696829 
L 202.504396 324.689148 
L 205.452498 324.679102 
L 208.400599 324.666022 
L 211.3487 324.64907 
L 214.296801 324.627204 
L 217.244903 324.599128 
L 220.193004 324.563248 
L 223.141105 324.517607 
L 226.089207 324.459823 
L 229.037308 324.387005 
L 231.985409 324.295675 
L 234.93351 324.181665 
L 237.881612 324.040015 
L 240.829713 323.864855 
L 243.777814 323.649286 
L 246.725916 323.38525 
L 249.674017 323.063392 
L 252.622118 322.67293 
L 255.570219 322.201518 
L 258.518321 321.635121 
L 261.466422 320.957899 
L 264.414523 320.152106 
L 267.362624 319.198021 
L 270.310726 318.073905 
L 273.258827 316.755995 
L 276.206928 315.218555 
L 279.15503 313.433976 
L 282.103131 311.372947 
L 285.051232 309.00469 
L 287.999333 306.297283 
L 290.947435 303.218064 
L 293.895536 299.734123 
L 296.843637 295.812884 
L 299.791738 291.422772 
L 302.73984 286.533966 
L 305.687941 281.119229 
L 308.636042 275.154791 
L 311.584144 268.621293 
L 314.532245 261.504741 
L 317.480346 253.797484 
L 320.428447 245.499151 
L 323.376549 236.617546 
L 326.32465 227.169463 
L 329.272751 217.181377 
L 332.220853 206.689995 
L 335.168954 195.742625 
L 338.117055 184.397347 
L 341.065156 172.72294 
L 344.013258 160.798568 
L 346.961359 148.713203 
L 349.90946 136.564773 
L 352.857561 124.459044 
L 355.805663 112.508248 
L 355.805663 324.72 
L 355.805663 324.72 
L 352.857561 324.72 
L 349.90946 324.72 
L 346.961359 324.72 
L 344.013258 324.72 
L 341.065156 324.72 
L 338.117055 324.72 
L 335.168954 324.72 
L 332.220853 324.72 
L 329.272751 324.72 
L 326.32465 324.72 
L 323.376549 324.72 
L 320.428447 324.72 
L 317.480346 324.72 
L 314.532245 324.72 
L 311.584144 324.72 
L 308.636042 324.72 
L 305.687941 324.72 
L 302.73984 324.72 
L 299.791738 324.72 
L 296.843637 324.72 
L 293.895536 324.72 
L 290.947435 324.72 
L 287.999333 324.72 
L 285.051232 324.72 
L 282.103131 324.72 
L 279.15503 324.72 
L 276.206928 324.72 
L 273.258827 324.72 
L 270.310726 324.72 
L 267.362624 324.72 
L 264.414523 324.72 
L 261.466422 324.72 
L 258.518321 324.72 
L 255.570219 324.72 
L 252.622118 324.72 
L 249.674017 324.72 
L 246.725916 324.72 
L 243.777814 324.72 
L 240.829713 324.72 
L 237.881612 324.72 
L 234.93351 324.72 
L 231.985409 324.72 
L 229.037308 324.72 
L 226.089207 324.72 
L 223.141105 324.72 
L 220.193004 324.72 
L 217.244903 324.72 
L 214.296801 324.72 
L 211.3487 324.72 
L 208.400599 324.72 
L 205.452498 324.72 
L 202.504396 324.72 
L 199.556295 324.72 
L 196.608194 324.72 
L 193.660093 324.72 
L 190.711991 324.72 
L 187.76389 324.72 
L 184.815789 324.72 
L 181.867687 324.72 
L 178.919586 324.72 
L 175.971485 324.72 
L 173.023384 324.72 
L 170.075282 324.72 
L 167.127181 324.72 
L 164.17908 324.72 
L 161.230978 324.72 
L 158.282877 324.72 
L 155.334776 324.72 
L 152.386675 324.72 
L 149.438573 324.72 
L 146.490472 324.72 
L 143.542371 324.72 
L 140.59427 324.72 
L 137.646168 324.72 
L 134.698067 324.72 
L 131.749966 324.72 
L 128.801864 324.72 
L 125.853763 324.72 
L 122.905662 324.72 
L 119.957561 324.72 
L 117.009459 324.72 
L 114.061358 324.72 
L 111.113257 324.72 
L 108.165156 324.72 
L 105.217054 324.72 
L 102.268953 324.72 
L 99.320852 324.72 
L 96.37275 324.72 
L 93.424649 324.72 
L 90.476548 324.72 
L 87.528447 324.72 
L 84.580345 324.72 
L 81.632244 324.72 
L 78.684143 324.72 
L 75.736041 324.72 
L 72.78794 324.72 
L 69.839839 324.72 
L 66.891738 324.72 
L 63.943636 324.72 
z
" clip-path="url(#p5dc789ff37)" style="fill: #0000ff; fill-opacity: 0.2; stroke: #0000ff; stroke-opacity: 0.2"/>
   </g>
   <g id="matplotlib.axis_1">
    <g id="xtick_1">
     <g id="line2d_1">
      <defs>
       <path id="me4a9fb074c" d="M 0 0 
L 0 3.5 
" style="stroke: #000000; stroke-width: 0.8"/>
      </defs>
      <g>
       <use xlink:href="#me4a9fb074c" x="268.604108" y="339.84" style="stroke: #000000; stroke-width: 0.8"/>
      </g>
     </g>
     <g id="text_9">
      <!-- 0 -->
      <g transform="translate(265.422858 354.438437) scale(0.1 -0.1)">
       <use xlink:href="#DejaVuSans-30"/>
      </g>
     </g>
    </g>
    <g id="xtick_2">
     <g id="line2d_2">
      <g>
       <use xlink:href="#me4a9fb074c" x="393.250736" y="339.84" style="stroke: #000000; stroke-width: 0.8"/>
      </g>
     </g>
     <g id="text_10">
      <!-- Effect Size -->
      <g transform="translate(366.931986 354.438437) scale(0.1 -0.1)">
       <defs>
        <path id="DejaVuSans-45" d="M 628 4666 
L 3578 4666 
L 3578 4134 
L 1259 4134 
L 1259 2753 
L 3481 2753 
L 3481 2222 
L 1259 2222 
L 1259 531 
L 3634 531 
L 3634 0 
L 628 0 
L 628 4666 
z
" transform="scale(0.015625)"/>
        <path id="DejaVuSans-66" d="M 2375 4863 
L 2375 4384 
L 1825 4384 
Q 1516 4384 1395 4259 
Q 1275 4134 1275 3809 
L 1275 3500 
L 2222 3500 
L 2222 3053 
L 1275 3053 
L 1275 0 
L 697 0 
L 697 3053 
L 147 3053 
L 147 3500 
L 697 3500 
L 697 3744 
Q 697 4328 969 4595 
Q 1241 4863 1831 4863 
L 2375 4863 
z
" transform="scale(0.015625)"/>
        <path id="DejaVuSans-53" d="M 3425 4513 
L 3425 3897 
Q 3066 4069 2747 4153 
Q 2428 4238 2131 4238 
Q 1616 4238 1336 4038 
Q 1056 3838 1056 3469 
Q 1056 3159 1242 3001 
Q 1428 2844 1947 2747 
L 2328 2669 
Q 3034 2534 3370 2195 
Q 3706 1856 3706 1288 
Q 3706 609 3251 259 
Q 2797 -91 1919 -91 
Q 1588 -91 1214 -16 
Q 841 59 441 206 
L 441 856 
Q 825 641 1194 531 
Q 1563 422 1919 422 
Q 2459 422 2753 634 
Q 3047 847 3047 1241 
Q 3047 1584 2836 1778 
Q 2625 1972 2144 2069 
L 1759 2144 
Q 1053 2284 737 2584 
Q 422 2884 422 3419 
Q 422 4038 858 4394 
Q 1294 4750 2059 4750 
Q 2388 4750 2728 4690 
Q 3069 4631 3425 4513 
z
" transform="scale(0.015625)"/>
        <path id="DejaVuSans-7a" d="M 353 3500 
L 3084 3500 
L 3084 2975 
L 922 459 
L 3084 459 
L 3084 0 
L 275 0 
L 275 525 
L 2438 3041 
L 353 3041 
L 353 3500 
z
" transform="scale(0.015625)"/>
       </defs>
       <use xlink:href="#DejaVuSans-45"/>
       <use xlink:href="#DejaVuSans-66" transform="translate(63.183594 0)"/>
       <use xlink:href="#DejaVuSans-66" transform="translate(98.388672 0)"/>
       <use xlink:href="#DejaVuSans-65" transform="translate(133.59375 0)"/>
       <use xlink:href="#DejaVuSans-63" transform="translate(195.117188 0)"/>
       <use xlink:href="#DejaVuSans-74" transform="translate(250.097656 0)"/>
       <use xlink:href="#DejaVuSans-20" transform="translate(289.306641 0)"/>
       <use xlink:href="#DejaVuSans-53" transform="translate(321.09375 0)"/>
       <use xlink:href="#DejaVuSans-69" transform="translate(384.570312 0)"/>
       <use xlink:href="#DejaVuSans-7a" transform="translate(412.353516 0)"/>
       <use xlink:href="#DejaVuSans-65" transform="translate(464.84375 0)"/>
      </g>
     </g>
    </g>
   </g>
   <g id="matplotlib.axis_2"/>
   <g id="line2d_3">
    <path d="M 63.943636 324.712313 
L 94.410467 324.578113 
L 106.597199 324.320607 
L 115.229468 323.92558 
L 121.830614 323.409614 
L 127.4162 322.752828 
L 131.986224 322.009098 
L 136.048468 321.146747 
L 140.110713 320.049177 
L 143.665176 318.855759 
L 147.21964 317.404258 
L 150.266323 315.922125 
L 153.313006 314.189217 
L 156.359689 312.173949 
L 158.898591 310.254836 
L 161.437494 308.096387 
L 163.976396 305.67797 
L 166.515299 302.978634 
L 169.054201 299.977352 
L 171.593104 296.653305 
L 174.132007 292.986197 
L 176.670909 288.956605 
L 179.209812 284.546368 
L 181.748714 279.738988 
L 184.287617 274.520071 
L 187.3343 267.69767 
L 190.380983 260.251093 
L 193.427666 252.173053 
L 196.474349 243.464744 
L 199.521032 234.136879 
L 203.075495 222.500174 
L 206.629959 210.10246 
L 210.692203 195.099073 
L 215.262228 177.336257 
L 221.355594 152.656901 
L 233.542326 103.040293 
L 237.60457 87.492838 
L 241.159034 74.712425 
L 244.205717 64.536252 
L 246.744619 56.702184 
L 249.283522 49.529829 
L 251.822424 43.084154 
L 253.853546 38.490967 
L 255.884668 34.428498 
L 257.91579 30.921317 
L 259.439132 28.668337 
L 260.962473 26.747601 
L 262.485815 25.16578 
L 264.009156 23.928389 
L 265.532498 23.039757 
L 267.055839 22.502999 
L 268.0714 22.341628 
L 269.086962 22.337761 
L 270.102523 22.491404 
L 271.118084 22.802317 
L 272.641425 23.562439 
L 274.164767 24.672602 
L 275.688108 26.128919 
L 277.21145 27.926305 
L 278.734791 30.05851 
L 280.258133 32.518148 
L 282.289255 36.292212 
L 284.320377 40.610262 
L 286.351499 45.44631 
L 288.890401 52.175712 
L 291.429304 59.607685 
L 293.968206 67.675405 
L 297.014889 78.095643 
L 300.569353 91.108556 
L 304.631597 106.851243 
L 310.217183 129.456047 
L 322.911695 181.15601 
L 327.48172 198.739656 
L 331.543964 213.542202 
L 335.098428 225.739641 
L 338.652891 237.159533 
L 342.207355 247.75466 
L 345.254038 256.158875 
L 348.300721 263.931116 
L 351.347404 271.074427 
L 354.394087 277.599802 
L 357.44077 283.525066 
L 359.979672 288.021183 
L 362.518575 292.132873 
L 365.057477 295.877969 
L 367.59638 299.27565 
L 370.135283 302.346051 
L 372.674185 305.109906 
L 375.213088 307.588221 
L 377.75199 309.801986 
L 380.798673 312.138441 
L 383.845356 314.158602 
L 386.892039 315.895871 
L 389.938722 317.381863 
L 392.985405 318.646162 
L 396.539869 319.877389 
L 400.094333 320.883598 
L 404.156577 321.803086 
L 408.726601 322.598122 
L 413.804406 323.248408 
L 419.897772 323.787604 
L 427.006699 324.185329 
L 436.146749 324.468072 
L 449.856822 324.644717 
L 476.261409 324.714374 
L 571.216364 324.72 
L 571.216364 324.72 
" clip-path="url(#p5dc789ff37)" style="fill: none; stroke: #000000; stroke-width: 2; stroke-linecap: square"/>
   </g>
   <g id="line2d_4">
    <path d="M 63.943636 324.72 
L 216.277789 324.609114 
L 229.987862 324.359766 
L 238.620131 323.999533 
L 245.221278 323.526612 
L 250.806863 322.922106 
L 255.884668 322.145893 
L 260.454693 321.203862 
L 264.516937 320.121568 
L 268.0714 318.944153 
L 271.625864 317.51142 
L 274.672547 316.047789 
L 277.71923 314.335791 
L 280.765913 312.343995 
L 283.812596 310.039156 
L 286.351499 307.854308 
L 288.890401 305.407297 
L 291.429304 302.677152 
L 293.968206 299.642854 
L 296.507109 296.283623 
L 299.046011 292.579237 
L 301.584914 288.51039 
L 304.123817 284.059072 
L 306.662719 279.20899 
L 309.201622 273.945996 
L 312.248305 267.069305 
L 315.294988 259.567488 
L 318.341671 251.433956 
L 321.388354 242.6707 
L 324.435037 233.289316 
L 327.9895 221.593253 
L 331.543964 209.141048 
L 335.606208 194.083513 
L 340.176233 176.273191 
L 346.269599 151.558404 
L 357.94855 103.98546 
L 362.010794 88.387728 
L 365.565258 75.547987 
L 368.611941 65.309857 
L 371.658624 55.914508 
L 374.197527 48.815709 
L 376.736429 42.450125 
L 378.767551 37.925291 
L 380.798673 33.934582 
L 382.829795 30.502163 
L 384.353137 28.306966 
L 385.876478 26.445266 
L 387.39982 24.923533 
L 388.923161 23.747077 
L 390.446503 22.920015 
L 391.969844 22.445248 
L 392.985405 22.32533 
L 394.000966 22.362942 
L 395.016527 22.558024 
L 396.032088 22.910272 
L 397.55543 23.732061 
L 399.078771 24.903296 
L 400.602113 26.419879 
L 402.125455 28.276518 
L 403.648796 30.466759 
L 405.172138 32.983024 
L 407.20326 36.830077 
L 409.234382 41.217865 
L 411.265504 46.120015 
L 413.804406 52.926408 
L 416.343309 60.428562 
L 419.389992 70.254476 
L 422.436675 80.861276 
L 425.991138 94.049559 
L 430.561163 111.968017 
L 437.16231 138.914884 
L 446.302359 176.18211 
L 451.380164 195.922882 
L 455.442408 210.881743 
L 458.996871 223.234812 
L 462.551335 234.823007 
L 466.105799 245.59463 
L 469.152482 254.153494 
L 472.199165 262.080979 
L 475.245848 269.378007 
L 478.292531 276.053723 
L 481.339214 282.12438 
L 483.878116 286.73694 
L 486.417019 290.960133 
L 488.955921 294.81132 
L 491.494824 298.309323 
L 494.033726 301.474035 
L 496.572629 304.326049 
L 499.111532 306.886322 
L 501.650434 309.175877 
L 504.697117 311.595287 
L 507.7438 313.689966 
L 510.790483 315.493703 
L 513.837166 317.038581 
L 516.883849 318.354698 
L 520.438313 319.638185 
L 523.992776 320.688684 
L 528.05502 321.650178 
L 532.625045 322.48303 
L 537.70285 323.165608 
L 543.288436 323.694071 
L 550.397363 324.129034 
L 559.537412 324.439927 
L 571.216364 324.618556 
L 571.216364 324.618556 
" clip-path="url(#p5dc789ff37)" style="fill: none; stroke: #000000; stroke-width: 2; stroke-linecap: square"/>
   </g>
   <g id="line2d_5">
    <path d="M 355.805663 339.84 
L 355.805663 7.2 
" clip-path="url(#p5dc789ff37)" style="fill: none; stroke-dasharray: 5.55,2.4; stroke-dashoffset: 0; stroke: #808080; stroke-width: 1.5"/>
   </g>
   <g id="patch_11">
    <path d="M 38.58 339.84 
L 596.58 339.84 
" style="fill: none; stroke: #000000; stroke-width: 0.8; stroke-linejoin: miter; stroke-linecap: square"/>
   </g>
   <g id="text_11">
    <!-- $H_0$ -->
    <g transform="translate(259.994108 91.875421) scale(0.14 -0.14)">
     <use xlink:href="#DejaVuSans-Oblique-48" transform="translate(0 0.09375)"/>
     <use xlink:href="#DejaVuSans-30" transform="translate(75.195312 -16.3125) scale(0.7)"/>
    </g>
   </g>
   <g id="text_12">
    <!-- $H_1$ -->
    <g transform="translate(384.640736 91.875421) scale(0.14 -0.14)">
     <use xlink:href="#DejaVuSans-Oblique-48" transform="translate(0 0.09375)"/>
     <use xlink:href="#DejaVuSans-31" transform="translate(75.195312 -16.3125) scale(0.7)"/>
    </g>
   </g>
   <g id="patch_12">
    <path d="M 420.226779 293.337322 
Q 393.153269 305.592613 366.89459 317.479057 
" style="fill: none; stroke: #000000; stroke-width: 0.8; stroke-linecap: round"/>
    <path d="M 371.363399 317.651539 
L 366.89459 317.479057 
L 369.713861 314.0075 
" style="fill: none; stroke: #000000; stroke-width: 0.8; stroke-linecap: round"/>
   </g>
   <g id="text_13">
    <!-- P(False Positive) -->
    <g transform="translate(409.195351 277.234721) scale(0.1 -0.1)">
     <defs>
      <path id="DejaVuSans-28" d="M 1984 4856 
Q 1566 4138 1362 3434 
Q 1159 2731 1159 2009 
Q 1159 1288 1364 580 
Q 1569 -128 1984 -844 
L 1484 -844 
Q 1016 -109 783 600 
Q 550 1309 550 2009 
Q 550 2706 781 3412 
Q 1013 4119 1484 4856 
L 1984 4856 
z
" transform="scale(0.015625)"/>
      <path id="DejaVuSans-29" d="M 513 4856 
L 1013 4856 
Q 1481 4119 1714 3412 
Q 1947 2706 1947 2009 
Q 1947 1309 1714 600 
Q 1481 -109 1013 -844 
L 513 -844 
Q 928 -128 1133 580 
Q 1338 1288 1338 2009 
Q 1338 2731 1133 3434 
Q 928 4138 513 4856 
z
" transform="scale(0.015625)"/>
     </defs>
     <use xlink:href="#DejaVuSans-50"/>
     <use xlink:href="#DejaVuSans-28" transform="translate(60.302734 0)"/>
     <use xlink:href="#DejaVuSans-46" transform="translate(99.316406 0)"/>
     <use xlink:href="#DejaVuSans-61" transform="translate(147.710938 0)"/>
     <use xlink:href="#DejaVuSans-6c" transform="translate(208.990234 0)"/>
     <use xlink:href="#DejaVuSans-73" transform="translate(236.773438 0)"/>
     <use xlink:href="#DejaVuSans-65" transform="translate(288.873047 0)"/>
     <use xlink:href="#DejaVuSans-20" transform="translate(350.396484 0)"/>
     <use xlink:href="#DejaVuSans-50" transform="translate(382.183594 0)"/>
     <use xlink:href="#DejaVuSans-6f" transform="translate(438.861328 0)"/>
     <use xlink:href="#DejaVuSans-73" transform="translate(500.042969 0)"/>
     <use xlink:href="#DejaVuSans-69" transform="translate(552.142578 0)"/>
     <use xlink:href="#DejaVuSans-74" transform="translate(579.925781 0)"/>
     <use xlink:href="#DejaVuSans-69" transform="translate(619.134766 0)"/>
     <use xlink:href="#DejaVuSans-76" transform="translate(646.917969 0)"/>
     <use xlink:href="#DejaVuSans-65" transform="translate(706.097656 0)"/>
     <use xlink:href="#DejaVuSans-29" transform="translate(767.621094 0)"/>
    </g>
    <!-- $\alpha = 0.05$ -->
    <g transform="translate(409.195351 288.432533) scale(0.1 -0.1)">
     <defs>
      <path id="DejaVuSans-3d" d="M 678 2906 
L 4684 2906 
L 4684 2381 
L 678 2381 
L 678 2906 
z
M 678 1631 
L 4684 1631 
L 4684 1100 
L 678 1100 
L 678 1631 
z
" transform="scale(0.015625)"/>
      <path id="DejaVuSans-2e" d="M 684 794 
L 1344 794 
L 1344 0 
L 684 0 
L 684 794 
z
" transform="scale(0.015625)"/>
      <path id="DejaVuSans-35" d="M 691 4666 
L 3169 4666 
L 3169 4134 
L 1269 4134 
L 1269 2991 
Q 1406 3038 1543 3061 
Q 1681 3084 1819 3084 
Q 2600 3084 3056 2656 
Q 3513 2228 3513 1497 
Q 3513 744 3044 326 
Q 2575 -91 1722 -91 
Q 1428 -91 1123 -41 
Q 819 9 494 109 
L 494 744 
Q 775 591 1075 516 
Q 1375 441 1709 441 
Q 2250 441 2565 725 
Q 2881 1009 2881 1497 
Q 2881 1984 2565 2268 
Q 2250 2553 1709 2553 
Q 1456 2553 1204 2497 
Q 953 2441 691 2322 
L 691 4666 
z
" transform="scale(0.015625)"/>
     </defs>
     <use xlink:href="#DejaVuSans-Oblique-3b1" transform="translate(0 0.78125)"/>
     <use xlink:href="#DejaVuSans-3d" transform="translate(85.400391 0.78125)"/>
     <use xlink:href="#DejaVuSans-30" transform="translate(188.671875 0.78125)"/>
     <use xlink:href="#DejaVuSans-2e" transform="translate(252.294922 0.78125)"/>
     <use xlink:href="#DejaVuSans-30" transform="translate(284.082031 0.78125)"/>
     <use xlink:href="#DejaVuSans-35" transform="translate(347.705078 0.78125)"/>
    </g>
   </g>
   <g id="patch_13">
    <path d="M 286.915983 245.633797 
Q 310.247919 272.328889 332.991246 298.350528 
" style="fill: none; stroke: #000000; stroke-width: 0.8; stroke-linecap: round"/>
    <path d="M 331.864794 294.022584 
L 332.991246 298.350528 
L 328.853019 296.654923 
" style="fill: none; stroke: #000000; stroke-width: 0.8; stroke-linecap: round"/>
   </g>
   <g id="text_14">
    <!-- P(False Negative) -->
    <g transform="translate(231.229724 228.851431) scale(0.1 -0.1)">
     <use xlink:href="#DejaVuSans-50"/>
     <use xlink:href="#DejaVuSans-28" transform="translate(60.302734 0)"/>
     <use xlink:href="#DejaVuSans-46" transform="translate(99.316406 0)"/>
     <use xlink:href="#DejaVuSans-61" transform="translate(147.710938 0)"/>
     <use xlink:href="#DejaVuSans-6c" transform="translate(208.990234 0)"/>
     <use xlink:href="#DejaVuSans-73" transform="translate(236.773438 0)"/>
     <use xlink:href="#DejaVuSans-65" transform="translate(288.873047 0)"/>
     <use xlink:href="#DejaVuSans-20" transform="translate(350.396484 0)"/>
     <use xlink:href="#DejaVuSans-4e" transform="translate(382.183594 0)"/>
     <use xlink:href="#DejaVuSans-65" transform="translate(456.988281 0)"/>
     <use xlink:href="#DejaVuSans-67" transform="translate(518.511719 0)"/>
     <use xlink:href="#DejaVuSans-61" transform="translate(581.988281 0)"/>
     <use xlink:href="#DejaVuSans-74" transform="translate(643.267578 0)"/>
     <use xlink:href="#DejaVuSans-69" transform="translate(682.476562 0)"/>
     <use xlink:href="#DejaVuSans-76" transform="translate(710.259766 0)"/>
     <use xlink:href="#DejaVuSans-65" transform="translate(769.439453 0)"/>
     <use xlink:href="#DejaVuSans-29" transform="translate(830.962891 0)"/>
    </g>
    <!--  1-Power = 20% -->
    <g transform="translate(231.229724 240.049244) scale(0.1 -0.1)">
     <defs>
      <path id="DejaVuSans-2d" d="M 313 2009 
L 1997 2009 
L 1997 1497 
L 313 1497 
L 313 2009 
z
" transform="scale(0.015625)"/>
      <path id="DejaVuSans-32" d="M 1228 531 
L 3431 531 
L 3431 0 
L 469 0 
L 469 531 
Q 828 903 1448 1529 
Q 2069 2156 2228 2338 
Q 2531 2678 2651 2914 
Q 2772 3150 2772 3378 
Q 2772 3750 2511 3984 
Q 2250 4219 1831 4219 
Q 1534 4219 1204 4116 
Q 875 4013 500 3803 
L 500 4441 
Q 881 4594 1212 4672 
Q 1544 4750 1819 4750 
Q 2544 4750 2975 4387 
Q 3406 4025 3406 3419 
Q 3406 3131 3298 2873 
Q 3191 2616 2906 2266 
Q 2828 2175 2409 1742 
Q 1991 1309 1228 531 
z
" transform="scale(0.015625)"/>
      <path id="DejaVuSans-25" d="M 4653 2053 
Q 4381 2053 4226 1822 
Q 4072 1591 4072 1178 
Q 4072 772 4226 539 
Q 4381 306 4653 306 
Q 4919 306 5073 539 
Q 5228 772 5228 1178 
Q 5228 1588 5073 1820 
Q 4919 2053 4653 2053 
z
M 4653 2450 
Q 5147 2450 5437 2106 
Q 5728 1763 5728 1178 
Q 5728 594 5436 251 
Q 5144 -91 4653 -91 
Q 4153 -91 3862 251 
Q 3572 594 3572 1178 
Q 3572 1766 3864 2108 
Q 4156 2450 4653 2450 
z
M 1428 4353 
Q 1159 4353 1004 4120 
Q 850 3888 850 3481 
Q 850 3069 1003 2837 
Q 1156 2606 1428 2606 
Q 1700 2606 1854 2837 
Q 2009 3069 2009 3481 
Q 2009 3884 1853 4118 
Q 1697 4353 1428 4353 
z
M 4250 4750 
L 4750 4750 
L 1831 -91 
L 1331 -91 
L 4250 4750 
z
M 1428 4750 
Q 1922 4750 2215 4408 
Q 2509 4066 2509 3481 
Q 2509 2891 2217 2550 
Q 1925 2209 1428 2209 
Q 931 2209 642 2551 
Q 353 2894 353 3481 
Q 353 4063 643 4406 
Q 934 4750 1428 4750 
z
" transform="scale(0.015625)"/>
     </defs>
     <use xlink:href="#DejaVuSans-20"/>
     <use xlink:href="#DejaVuSans-31" transform="translate(31.787109 0)"/>
     <use xlink:href="#DejaVuSans-2d" transform="translate(95.410156 0)"/>
     <use xlink:href="#DejaVuSans-50" transform="translate(131.494141 0)"/>
     <use xlink:href="#DejaVuSans-6f" transform="translate(188.171875 0)"/>
     <use xlink:href="#DejaVuSans-77" transform="translate(249.353516 0)"/>
     <use xlink:href="#DejaVuSans-65" transform="translate(331.140625 0)"/>
     <use xlink:href="#DejaVuSans-72" transform="translate(392.664062 0)"/>
     <use xlink:href="#DejaVuSans-20" transform="translate(433.777344 0)"/>
     <use xlink:href="#DejaVuSans-3d" transform="translate(465.564453 0)"/>
     <use xlink:href="#DejaVuSans-20" transform="translate(549.353516 0)"/>
     <use xlink:href="#DejaVuSans-32" transform="translate(581.140625 0)"/>
     <use xlink:href="#DejaVuSans-30" transform="translate(644.763672 0)"/>
     <use xlink:href="#DejaVuSans-25" transform="translate(708.386719 0)"/>
    </g>
   </g>
   <g id="patch_14">
    <path d="M 450.730512 209.809688 
Q 423.270862 209.809688 395.811213 209.809688 
" style="fill: none; stroke: #000000; stroke-width: 0.5; stroke-linecap: round"/>
    <path d="M 446.730512 207.809688 
L 450.730512 209.809688 
L 446.730512 211.809688 
" style="fill: none; stroke: #000000; stroke-width: 0.5; stroke-linecap: round"/>
    <path d="M 399.811213 211.809688 
L 395.811213 209.809688 
L 399.811213 207.809688 
" style="fill: none; stroke: #000000; stroke-width: 0.5; stroke-linecap: round"/>
   </g>
   <g id="text_15">
    <!-- $\propto 1/\sqrt{n}$ -->
    <g transform="translate(405.268653 207.730001) scale(0.1 -0.1)">
     <defs>
      <path id="DejaVuSans-221d" d="M 1647 1134 
Q 2163 1134 2472 1884 
Q 2075 2703 1647 2703 
Q 1334 2703 1175 2478 
Q 1006 2238 1006 1919 
Q 1006 1569 1175 1353 
Q 1350 1134 1647 1134 
z
M 3884 1128 
L 3884 716 
L 3644 716 
Q 3416 716 3247 809 
Q 3078 894 2916 1091 
Q 2819 1203 2666 1466 
Q 2456 1091 2272 925 
Q 2044 725 1681 725 
Q 1259 725 981 1041 
Q 688 1372 688 1919 
Q 688 2444 981 2800 
Q 1241 3116 1688 3116 
Q 1916 3116 2084 3022 
Q 2281 2919 2416 2741 
Q 2541 2581 2666 2366 
Q 2875 2741 3059 2906 
Q 3288 3106 3650 3106 
L 3884 3106 
L 3884 2697 
L 3684 2697 
Q 3222 2697 2859 1947 
Q 3256 1128 3684 1128 
L 3884 1128 
z
" transform="scale(0.015625)"/>
      <path id="DejaVuSans-2f" d="M 1625 4666 
L 2156 4666 
L 531 -594 
L 0 -594 
L 1625 4666 
z
" transform="scale(0.015625)"/>
      <path id="DejaVuSans-221a" d="M 3488 5191 
L 4078 5191 
L 4078 4891 
L 3719 4891 
L 1863 -128 
L 1656 -128 
L 659 2631 
L 269 2491 
L 191 2741 
L 1075 3047 
L 1875 831 
L 3488 5191 
z
" transform="scale(0.015625)"/>
      <path id="DejaVuSans-Oblique-6e" d="M 3566 2113 
L 3156 0 
L 2578 0 
L 2988 2091 
Q 3016 2238 3031 2350 
Q 3047 2463 3047 2528 
Q 3047 2791 2881 2937 
Q 2716 3084 2419 3084 
Q 1956 3084 1622 2776 
Q 1288 2469 1184 1941 
L 800 0 
L 225 0 
L 903 3500 
L 1478 3500 
L 1363 2950 
Q 1603 3253 1940 3418 
Q 2278 3584 2650 3584 
Q 3113 3584 3367 3334 
Q 3622 3084 3622 2631 
Q 3622 2519 3608 2391 
Q 3594 2263 3566 2113 
z
" transform="scale(0.015625)"/>
     </defs>
     <use xlink:href="#DejaVuSans-221d" transform="translate(19.482422 0.890625)"/>
     <use xlink:href="#DejaVuSans-31" transform="translate(110.400391 0.890625)"/>
     <use xlink:href="#DejaVuSans-2f" transform="translate(174.023438 0.890625)"/>
     <use xlink:href="#DejaVuSans-221a" transform="translate(207.714844 0.890625)"/>
     <use xlink:href="#DejaVuSans-Oblique-6e" transform="translate(283.935547 0.75)"/>
     <path d="M 271.435547 75.5 
L 271.435547 81.75 
L 359.814453 81.75 
L 359.814453 75.5 
L 271.435547 75.5 
z
"/>
    </g>
   </g>
   <g id="patch_15">
    <path d="M 375.491583 16.276531 
Q 369.005311 16.276531 361.960022 16.276531 
" style="fill: none; stroke: #000000; stroke-width: 0.5; stroke-linecap: round"/>
    <path d="M 371.491583 14.276531 
L 375.491583 16.276531 
L 371.491583 18.276531 
" style="fill: none; stroke: #000000; stroke-width: 0.5; stroke-linecap: round"/>
   </g>
   <g id="text_16">
    <!-- $Reject\ H_0$ -->
    <g transform="translate(378.051366 16.276531) scale(0.1 -0.1)">
     <defs>
      <path id="DejaVuSans-Oblique-52" d="M 1613 4147 
L 1294 2491 
L 2106 2491 
Q 2584 2491 2879 2755 
Q 3175 3019 3175 3444 
Q 3175 3784 2976 3965 
Q 2778 4147 2406 4147 
L 1613 4147 
z
M 2772 2241 
Q 2972 2194 3105 2009 
Q 3238 1825 3413 1275 
L 3809 0 
L 3144 0 
L 2778 1197 
Q 2638 1659 2453 1815 
Q 2269 1972 1888 1972 
L 1191 1972 
L 806 0 
L 172 0 
L 1081 4666 
L 2503 4666 
Q 3150 4666 3495 4373 
Q 3841 4081 3841 3531 
Q 3841 3044 3547 2687 
Q 3253 2331 2772 2241 
z
" transform="scale(0.015625)"/>
      <path id="DejaVuSans-Oblique-65" d="M 3078 2063 
Q 3088 2113 3092 2166 
Q 3097 2219 3097 2272 
Q 3097 2653 2873 2875 
Q 2650 3097 2266 3097 
Q 1838 3097 1509 2826 
Q 1181 2556 1013 2059 
L 3078 2063 
z
M 3578 1613 
L 903 1613 
Q 884 1494 878 1425 
Q 872 1356 872 1306 
Q 872 872 1139 634 
Q 1406 397 1894 397 
Q 2269 397 2603 481 
Q 2938 566 3225 728 
L 3116 159 
Q 2806 34 2476 -28 
Q 2147 -91 1806 -91 
Q 1078 -91 686 257 
Q 294 606 294 1247 
Q 294 1794 489 2264 
Q 684 2734 1063 3103 
Q 1306 3334 1642 3459 
Q 1978 3584 2356 3584 
Q 2950 3584 3301 3228 
Q 3653 2872 3653 2272 
Q 3653 2128 3634 1964 
Q 3616 1800 3578 1613 
z
" transform="scale(0.015625)"/>
      <path id="DejaVuSans-Oblique-6a" d="M 928 3500 
L 1503 3500 
L 813 -63 
L 809 -78 
Q 694 -675 544 -897 
Q 403 -1106 132 -1218 
Q -138 -1331 -506 -1331 
L -722 -1331 
L -628 -844 
L -481 -844 
Q -144 -844 -1 -703 
Q 141 -563 238 -63 
L 928 3500 
z
M 1197 4863 
L 1772 4863 
L 1631 4134 
L 1056 4134 
L 1197 4863 
z
" transform="scale(0.015625)"/>
      <path id="DejaVuSans-Oblique-63" d="M 3431 3366 
L 3316 2797 
Q 3109 2947 2876 3022 
Q 2644 3097 2394 3097 
Q 2119 3097 1870 3000 
Q 1622 2903 1453 2725 
Q 1184 2453 1037 2087 
Q 891 1722 891 1331 
Q 891 859 1127 628 
Q 1363 397 1844 397 
Q 2081 397 2348 469 
Q 2616 541 2906 684 
L 2797 116 
Q 2547 13 2283 -39 
Q 2019 -91 1741 -91 
Q 1044 -91 669 257 
Q 294 606 294 1253 
Q 294 1797 489 2255 
Q 684 2713 1069 3078 
Q 1331 3328 1684 3456 
Q 2038 3584 2456 3584 
Q 2700 3584 2940 3529 
Q 3181 3475 3431 3366 
z
" transform="scale(0.015625)"/>
      <path id="DejaVuSans-Oblique-74" d="M 2706 3500 
L 2619 3053 
L 1472 3053 
L 1100 1153 
Q 1081 1047 1072 975 
Q 1063 903 1063 863 
Q 1063 663 1183 572 
Q 1303 481 1569 481 
L 2150 481 
L 2053 0 
L 1503 0 
Q 991 0 739 200 
Q 488 400 488 806 
Q 488 878 497 964 
Q 506 1050 525 1153 
L 897 3053 
L 409 3053 
L 500 3500 
L 978 3500 
L 1172 4494 
L 1747 4494 
L 1556 3500 
L 2706 3500 
z
" transform="scale(0.015625)"/>
     </defs>
     <use xlink:href="#DejaVuSans-Oblique-52" transform="translate(0 0.015625)"/>
     <use xlink:href="#DejaVuSans-Oblique-65" transform="translate(69.482422 0.015625)"/>
     <use xlink:href="#DejaVuSans-Oblique-6a" transform="translate(131.005859 0.015625)"/>
     <use xlink:href="#DejaVuSans-Oblique-65" transform="translate(158.789062 0.015625)"/>
     <use xlink:href="#DejaVuSans-Oblique-63" transform="translate(220.3125 0.015625)"/>
     <use xlink:href="#DejaVuSans-Oblique-74" transform="translate(275.292969 0.015625)"/>
     <use xlink:href="#DejaVuSans-Oblique-48" transform="translate(346.972332 0.015625)"/>
     <use xlink:href="#DejaVuSans-30" transform="translate(422.167644 -16.390625) scale(0.7)"/>
    </g>
   </g>
   <g id="patch_16">
    <path d="M 336.119743 16.276531 
Q 342.606015 16.276531 349.651304 16.276531 
" style="fill: none; stroke: #000000; stroke-width: 0.5; stroke-linecap: round"/>
    <path d="M 340.119743 18.276531 
L 336.119743 16.276531 
L 340.119743 14.276531 
" style="fill: none; stroke: #000000; stroke-width: 0.5; stroke-linecap: round"/>
   </g>
   <g id="text_17">
    <!-- $Fail\ to\ reject\ H_0$ -->
    <g transform="translate(255.459959 16.276531) scale(0.1 -0.1)">
     <defs>
      <path id="DejaVuSans-Oblique-46" d="M 1081 4666 
L 3756 4666 
L 3653 4134 
L 1606 4134 
L 1338 2759 
L 3188 2759 
L 3084 2228 
L 1234 2228 
L 800 0 
L 172 0 
L 1081 4666 
z
" transform="scale(0.015625)"/>
      <path id="DejaVuSans-Oblique-61" d="M 3438 1997 
L 3047 0 
L 2472 0 
L 2578 531 
Q 2325 219 2001 64 
Q 1678 -91 1281 -91 
Q 834 -91 548 182 
Q 263 456 263 884 
Q 263 1497 752 1853 
Q 1241 2209 2100 2209 
L 2900 2209 
L 2931 2363 
Q 2938 2388 2941 2417 
Q 2944 2447 2944 2509 
Q 2944 2788 2717 2942 
Q 2491 3097 2081 3097 
Q 1800 3097 1504 3025 
Q 1209 2953 897 2809 
L 997 3341 
Q 1322 3463 1633 3523 
Q 1944 3584 2234 3584 
Q 2853 3584 3176 3315 
Q 3500 3047 3500 2534 
Q 3500 2431 3484 2292 
Q 3469 2153 3438 1997 
z
M 2816 1759 
L 2241 1759 
Q 1534 1759 1195 1570 
Q 856 1381 856 984 
Q 856 709 1029 553 
Q 1203 397 1509 397 
Q 1978 397 2328 733 
Q 2678 1069 2791 1631 
L 2816 1759 
z
" transform="scale(0.015625)"/>
      <path id="DejaVuSans-Oblique-69" d="M 1172 4863 
L 1747 4863 
L 1606 4134 
L 1031 4134 
L 1172 4863 
z
M 909 3500 
L 1484 3500 
L 800 0 
L 225 0 
L 909 3500 
z
" transform="scale(0.015625)"/>
      <path id="DejaVuSans-Oblique-6c" d="M 1172 4863 
L 1747 4863 
L 800 0 
L 225 0 
L 1172 4863 
z
" transform="scale(0.015625)"/>
      <path id="DejaVuSans-Oblique-6f" d="M 1625 -91 
Q 1009 -91 651 289 
Q 294 669 294 1325 
Q 294 1706 417 2101 
Q 541 2497 738 2766 
Q 1047 3184 1428 3384 
Q 1809 3584 2291 3584 
Q 2888 3584 3255 3212 
Q 3622 2841 3622 2241 
Q 3622 1825 3500 1412 
Q 3378 1000 3181 728 
Q 2875 309 2494 109 
Q 2113 -91 1625 -91 
z
M 891 1344 
Q 891 869 1089 633 
Q 1288 397 1691 397 
Q 2269 397 2648 901 
Q 3028 1406 3028 2181 
Q 3028 2634 2825 2865 
Q 2622 3097 2228 3097 
Q 1903 3097 1650 2945 
Q 1397 2794 1197 2484 
Q 1050 2253 970 1956 
Q 891 1659 891 1344 
z
" transform="scale(0.015625)"/>
      <path id="DejaVuSans-Oblique-72" d="M 2853 2969 
Q 2766 3016 2653 3041 
Q 2541 3066 2413 3066 
Q 1953 3066 1609 2717 
Q 1266 2369 1153 1784 
L 800 0 
L 225 0 
L 909 3500 
L 1484 3500 
L 1375 2956 
Q 1603 3259 1920 3421 
Q 2238 3584 2597 3584 
Q 2691 3584 2781 3573 
Q 2872 3563 2963 3538 
L 2853 2969 
z
" transform="scale(0.015625)"/>
     </defs>
     <use xlink:href="#DejaVuSans-Oblique-46" transform="translate(0 0.015625)"/>
     <use xlink:href="#DejaVuSans-Oblique-61" transform="translate(57.519531 0.015625)"/>
     <use xlink:href="#DejaVuSans-Oblique-69" transform="translate(118.798828 0.015625)"/>
     <use xlink:href="#DejaVuSans-Oblique-6c" transform="translate(146.582031 0.015625)"/>
     <use xlink:href="#DejaVuSans-Oblique-74" transform="translate(206.835613 0.015625)"/>
     <use xlink:href="#DejaVuSans-Oblique-6f" transform="translate(246.044597 0.015625)"/>
     <use xlink:href="#DejaVuSans-Oblique-72" transform="translate(339.696616 0.015625)"/>
     <use xlink:href="#DejaVuSans-Oblique-65" transform="translate(380.809897 0.015625)"/>
     <use xlink:href="#DejaVuSans-Oblique-6a" transform="translate(442.333335 0.015625)"/>
     <use xlink:href="#DejaVuSans-Oblique-65" transform="translate(470.116538 0.015625)"/>
     <use xlink:href="#DejaVuSans-Oblique-63" transform="translate(531.639976 0.015625)"/>
     <use xlink:href="#DejaVuSans-Oblique-74" transform="translate(586.620444 0.015625)"/>
     <use xlink:href="#DejaVuSans-Oblique-48" transform="translate(658.299807 0.015625)"/>
     <use xlink:href="#DejaVuSans-30" transform="translate(733.49512 -16.390625) scale(0.7)"/>
    </g>
   </g>
  </g>
 </g>
 <defs>
  <clipPath id="p5dc789ff37">
   <rect x="38.58" y="7.2" width="558" height="332.64"/>
  </clipPath>
 </defs>
 <defs>
  <pattern id="hd74afbf311" patternUnits="userSpaceOnUse" x="0" y="0" width="72" height="72">
   <rect x="0" y="0" width="73" height="73" fill="#ff0000"/>
   <path d="M -36 36 
L 36 -36 
M -30 42 
L 42 -30 
M -24 48 
L 48 -24 
M -18 54 
L 54 -18 
M -12 60 
L 60 -12 
M -6 66 
L 66 -6 
M 0 72 
L 72 0 
M 6 78 
L 78 6 
M 12 84 
L 84 12 
M 18 90 
L 90 18 
M 24 96 
L 96 24 
M 30 102 
L 102 30 
M 36 108 
L 108 36 
" style="fill: #ff0000; stroke: #ff0000; stroke-width: 1.0; stroke-linecap: butt; stroke-linejoin: miter; stroke-opacity: 0.3"/>
  </pattern>
 </defs>
</svg>
